<svg width="240" height="110" viewBox="0 0 240 110" fill="none" xmlns="http://www.w3.org/2000/svg">
<g clip-path="url(#clip0_2_54)">
<path d="M81.86 35.49C81.8543 34.4457 82.0585 33.411 82.4607 32.4472C82.8629 31.4835 83.4547 30.6104 84.201 29.88C84.9473 29.1495 85.8329 28.5766 86.805 28.1952C87.7772 27.8138 88.8161 27.6318 89.86 27.66C90.7975 27.617 91.734 27.763 92.6139 28.0892C93.4938 28.4154 94.2992 28.9152 94.9821 29.5589C95.665 30.2026 96.2114 30.9771 96.589 31.8362C96.9666 32.6953 97.1676 33.6216 97.18 34.56C97.1934 34.6272 97.1905 34.6966 97.1716 34.7625C97.1527 34.8284 97.1184 34.8888 97.0714 34.9387C97.0244 34.9886 96.9662 35.0265 96.9016 35.0494C96.837 35.0722 96.7679 35.0793 96.7 35.07H83.42C83.06 38.91 86.06 41.88 90.2 41.88C92.0003 41.9056 93.7486 41.2766 95.12 40.11C95.1673 40.0645 95.2238 40.0297 95.2856 40.0079C95.3475 39.986 95.4133 39.9777 95.4786 39.9834C95.544 39.9891 95.6074 40.0086 95.6645 40.0408C95.7217 40.073 95.7713 40.1171 95.81 40.17L96.02 40.41C96.0736 40.4633 96.1144 40.528 96.1393 40.5994C96.1643 40.6707 96.1728 40.7467 96.1641 40.8218C96.1554 40.8969 96.1299 40.969 96.0893 41.0328C96.0488 41.0966 95.9943 41.1503 95.93 41.19C94.3283 42.5546 92.2727 43.2683 90.17 43.19C85.1 43.23 81.86 39.75 81.86 35.49ZM95.6 33.87C95.4556 32.4766 94.7793 31.1927 93.712 30.2855C92.6446 29.3783 91.2684 28.9179 89.87 29C88.4233 28.9711 87.0101 29.4371 85.8644 30.3209C84.7187 31.2047 83.9092 32.4533 83.57 33.86L95.6 33.87Z" fill="#3EC2CF"/>
<path d="M99.68 35.43C99.68 31.2 102.47 27.66 107.18 27.66C108.53 27.6141 109.864 27.9696 111.012 28.6816C112.16 29.3936 113.071 30.4301 113.63 31.66V28.5C113.624 28.4341 113.633 28.3678 113.654 28.3054C113.676 28.243 113.711 28.1859 113.756 28.1377C113.801 28.0896 113.856 28.0516 113.917 28.0261C113.978 28.0007 114.044 27.9884 114.11 27.99H114.65C114.719 27.982 114.789 27.9897 114.854 28.0125C114.92 28.0353 114.979 28.0726 115.028 28.1217C115.077 28.1707 115.115 28.2302 115.138 28.2957C115.16 28.3613 115.168 28.4311 115.16 28.5V42.39C115.166 42.4585 115.157 42.5275 115.134 42.5922C115.11 42.6568 115.073 42.7156 115.024 42.7642C114.976 42.8128 114.917 42.8502 114.852 42.8737C114.788 42.8971 114.719 42.9061 114.65 42.9H114.11C114.043 42.9051 113.976 42.8952 113.913 42.8709C113.851 42.8466 113.794 42.8086 113.748 42.7597C113.702 42.7108 113.668 42.6522 113.647 42.5882C113.627 42.5243 113.621 42.4565 113.63 42.39V39.27C113.08 40.4943 112.18 41.5279 111.042 42.24C109.905 42.9521 108.581 43.3105 107.24 43.27C102.62 43.23 99.68 39.78 99.68 35.43ZM113.68 35.43C113.722 34.5813 113.587 33.733 113.284 32.9391C112.981 32.1453 112.516 31.4231 111.919 30.8184C111.322 30.2138 110.606 29.7399 109.816 29.4269C109.026 29.1138 108.179 28.9685 107.33 29C103.43 29 101.22 32 101.22 35.43C101.22 38.86 103.53 41.88 107.37 41.88C108.216 41.9018 109.057 41.7486 109.84 41.43C110.624 41.1114 111.333 40.6344 111.924 40.0288C112.514 39.4232 112.973 38.7021 113.272 37.9107C113.571 37.1194 113.703 36.2748 113.66 35.43H113.68Z" fill="#3EC2CF"/>
<path d="M120.22 42.39V28.5C120.214 28.4315 120.223 28.3625 120.246 28.2978C120.27 28.2332 120.307 28.1744 120.356 28.1258C120.404 28.0772 120.463 28.0398 120.528 28.0163C120.592 27.9929 120.661 27.9839 120.73 27.99H121.24C121.309 27.982 121.379 27.9897 121.444 28.0125C121.51 28.0353 121.569 28.0726 121.618 28.1217C121.667 28.1707 121.705 28.2302 121.728 28.2957C121.75 28.3613 121.758 28.4311 121.75 28.5V31.89C122.38 29.4 123.94 27.66 126.58 27.66C126.821 27.6651 127.061 27.6851 127.3 27.72C127.6 27.72 127.69 27.99 127.69 28.26V28.77C127.69 29.1 127.54 29.25 127.27 29.19C127 29.13 126.7 29.13 126.52 29.13C123.4 29.13 121.78 32.31 121.75 37.13V42.35C121.758 42.4189 121.75 42.4887 121.728 42.5543C121.705 42.6198 121.667 42.6793 121.618 42.7283C121.569 42.7774 121.51 42.8147 121.444 42.8375C121.379 42.8603 121.309 42.868 121.24 42.86H120.73C120.665 42.8672 120.599 42.8603 120.536 42.8397C120.474 42.8192 120.416 42.7855 120.368 42.741C120.32 42.6965 120.282 42.6421 120.256 42.5816C120.23 42.521 120.218 42.4557 120.22 42.39Z" fill="#3EC2CF"/>
<path d="M130.55 42.39V21.72C130.544 21.6541 130.553 21.5878 130.574 21.5254C130.596 21.463 130.631 21.4059 130.676 21.3577C130.721 21.3096 130.776 21.2716 130.837 21.2461C130.898 21.2207 130.964 21.2083 131.03 21.21H131.57C131.639 21.202 131.709 21.2097 131.774 21.2325C131.84 21.2553 131.899 21.2926 131.948 21.3417C131.997 21.3907 132.035 21.4502 132.058 21.5157C132.08 21.5813 132.088 21.6511 132.08 21.72V42.39C132.086 42.4585 132.077 42.5275 132.054 42.5922C132.03 42.6568 131.993 42.7156 131.944 42.7642C131.896 42.8128 131.837 42.8502 131.772 42.8737C131.708 42.8971 131.639 42.9061 131.57 42.9H131.03C130.963 42.9051 130.896 42.8952 130.833 42.8709C130.771 42.8466 130.714 42.8086 130.668 42.7597C130.622 42.7108 130.588 42.6522 130.567 42.5882C130.547 42.5243 130.541 42.4565 130.55 42.39V42.39Z" fill="#3EC2CF"/>
<path d="M139.52 49.05L141.92 43.05L135.68 28.62C135.53 28.26 135.68 28.02 136.07 28.02H136.76C136.884 28.0169 137.006 28.0529 137.108 28.1229C137.21 28.1929 137.288 28.2933 137.33 28.41L142.76 41.31L147.98 28.44C148.013 28.3096 148.092 28.1954 148.202 28.1183C148.312 28.0412 148.446 28.0063 148.58 28.02H149.27C149.63 28.02 149.81 28.23 149.66 28.62L140.93 49.26C140.891 49.3784 140.814 49.4807 140.711 49.5512C140.608 49.6216 140.485 49.6563 140.36 49.65H139.91C139.55 49.62 139.37 49.41 139.52 49.05Z" fill="#3EC2CF"/>
<path d="M101.22 64.56C101.22 60.21 104.22 56.7 109.65 56.7C111.343 56.7274 112.995 57.2261 114.42 58.14C114.482 58.1683 114.537 58.2109 114.581 58.2642C114.624 58.3176 114.654 58.3803 114.668 58.4473C114.683 58.5144 114.682 58.5839 114.665 58.6503C114.647 58.7168 114.615 58.7783 114.57 58.83L114.36 59.1C114.28 59.2105 114.159 59.2851 114.025 59.3076C113.89 59.33 113.752 59.2986 113.64 59.22C112.464 58.4762 111.101 58.0809 109.71 58.08C105.42 58.08 102.81 60.87 102.71 64.5C102.61 68.13 105.38 70.92 109.71 70.92C111.104 70.9053 112.465 70.4999 113.64 69.75C113.696 69.7098 113.76 69.6817 113.828 69.6674C113.895 69.6532 113.965 69.6531 114.033 69.6672C114.101 69.6813 114.165 69.7092 114.221 69.7493C114.277 69.7894 114.325 69.8407 114.36 69.9L114.54 70.17C114.72 70.44 114.6 70.74 114.12 71.01C112.766 71.8138 111.225 72.2483 109.65 72.27C104.22 72.27 101.22 68.85 101.22 64.56Z" fill="#3EC2CF"/>
<path d="M118.45 71.43V50.76C118.444 50.6915 118.453 50.6225 118.476 50.5578C118.5 50.4932 118.537 50.4344 118.586 50.3858C118.634 50.3372 118.693 50.2998 118.758 50.2763C118.822 50.2529 118.891 50.2439 118.96 50.25H119.47C119.539 50.242 119.609 50.2497 119.674 50.2725C119.74 50.2953 119.799 50.3326 119.848 50.3817C119.897 50.4307 119.935 50.4902 119.958 50.5557C119.98 50.6213 119.988 50.6911 119.98 50.76V60.42C120.402 59.3227 121.146 58.3795 122.116 57.7151C123.086 57.0508 124.235 56.6968 125.41 56.7C128.53 56.7 131.59 58.32 131.59 63.39V71.39C131.596 71.4585 131.587 71.5275 131.564 71.5922C131.54 71.6569 131.503 71.7156 131.454 71.7642C131.406 71.8128 131.347 71.8502 131.282 71.8737C131.218 71.8971 131.149 71.9061 131.08 71.9H130.54C130.473 71.9051 130.406 71.8952 130.343 71.8709C130.281 71.8466 130.224 71.8086 130.178 71.7597C130.132 71.7108 130.098 71.6522 130.077 71.5883C130.057 71.5243 130.051 71.4565 130.06 71.39V63.39C130.06 59.25 127.63 58.08 125.35 58.08C123.58 58.08 120.07 59.37 119.98 64.32V71.43C119.988 71.4989 119.98 71.5687 119.958 71.6343C119.935 71.6998 119.897 71.7593 119.848 71.8083C119.799 71.8574 119.74 71.8947 119.674 71.9175C119.609 71.9403 119.539 71.948 119.47 71.94H118.96C118.891 71.948 118.821 71.9403 118.756 71.9175C118.69 71.8947 118.631 71.8574 118.582 71.8083C118.533 71.7593 118.495 71.6998 118.472 71.6343C118.45 71.5687 118.442 71.4989 118.45 71.43V71.43Z" fill="#3EC2CF"/>
<path d="M136.09 51.81C136.075 51.6452 136.094 51.4791 136.147 51.3223C136.2 51.1654 136.284 51.0213 136.396 50.899C136.507 50.7768 136.643 50.6791 136.795 50.6123C136.946 50.5455 137.11 50.511 137.275 50.511C137.44 50.511 137.604 50.5455 137.755 50.6123C137.907 50.6791 138.043 50.7768 138.154 50.899C138.266 51.0213 138.35 51.1654 138.403 51.3223C138.456 51.4791 138.475 51.6452 138.46 51.81C138.475 51.9748 138.456 52.1409 138.403 52.2977C138.35 52.4546 138.266 52.5987 138.154 52.721C138.043 52.8432 137.907 52.9409 137.755 53.0077C137.604 53.0745 137.44 53.109 137.275 53.109C137.11 53.109 136.946 53.0745 136.795 53.0077C136.643 52.9409 136.507 52.8432 136.396 52.721C136.284 52.5987 136.2 52.4546 136.147 52.2977C136.094 52.1409 136.075 51.9748 136.09 51.81ZM136.54 71.43V57.54C136.534 57.4742 136.543 57.4078 136.564 57.3454C136.586 57.283 136.621 57.2259 136.666 57.1777C136.711 57.1296 136.766 57.0916 136.827 57.0661C136.888 57.0407 136.954 57.0284 137.02 57.03H137.56C137.629 57.022 137.699 57.0297 137.764 57.0525C137.83 57.0753 137.889 57.1126 137.938 57.1617C137.987 57.2107 138.025 57.2702 138.048 57.3357C138.07 57.4013 138.078 57.4711 138.07 57.54V71.43C138.076 71.4985 138.067 71.5675 138.044 71.6322C138.02 71.6969 137.983 71.7556 137.934 71.8042C137.886 71.8528 137.827 71.8902 137.762 71.9137C137.698 71.9371 137.629 71.9461 137.56 71.94H137.02C136.953 71.9451 136.886 71.9352 136.823 71.9109C136.761 71.8866 136.704 71.8486 136.658 71.7997C136.612 71.7508 136.578 71.6922 136.557 71.6283C136.537 71.5643 136.531 71.4965 136.54 71.43V71.43Z" fill="#3EC2CF"/>
<path d="M143.38 71.43V50.76C143.374 50.6941 143.383 50.6279 143.404 50.5654C143.426 50.503 143.461 50.4459 143.506 50.3977C143.551 50.3496 143.606 50.3116 143.667 50.2861C143.728 50.2607 143.794 50.2484 143.86 50.25H144.4C144.469 50.242 144.539 50.2497 144.604 50.2725C144.67 50.2953 144.729 50.3326 144.778 50.3817C144.827 50.4307 144.865 50.4902 144.888 50.5557C144.91 50.6213 144.918 50.6911 144.91 50.76V71.43C144.916 71.4985 144.907 71.5675 144.884 71.6322C144.86 71.6969 144.823 71.7556 144.774 71.8042C144.726 71.8528 144.667 71.8902 144.602 71.9137C144.538 71.9371 144.469 71.9461 144.4 71.94H143.86C143.793 71.9451 143.726 71.9352 143.663 71.9109C143.601 71.8866 143.544 71.8486 143.498 71.7997C143.452 71.7508 143.418 71.6922 143.397 71.6283C143.377 71.5643 143.371 71.4965 143.38 71.43Z" fill="#3EC2CF"/>
<path d="M148.93 64.47C148.93 60.15 151.87 56.7 156.49 56.7C157.833 56.6527 159.159 57.0084 160.298 57.7213C161.436 58.4342 162.336 59.4716 162.88 60.7V50.8C162.874 50.7315 162.883 50.6625 162.906 50.5978C162.93 50.5332 162.967 50.4744 163.016 50.4258C163.064 50.3772 163.123 50.3398 163.188 50.3163C163.252 50.2929 163.321 50.2839 163.39 50.29H163.9C163.969 50.282 164.039 50.2897 164.104 50.3125C164.17 50.3353 164.229 50.3726 164.278 50.4217C164.327 50.4707 164.365 50.5302 164.388 50.5957C164.41 50.6613 164.418 50.7311 164.41 50.8V71.43C164.416 71.4985 164.407 71.5675 164.384 71.6322C164.36 71.6969 164.323 71.7556 164.274 71.8042C164.226 71.8528 164.167 71.8902 164.102 71.9137C164.038 71.9371 163.969 71.9461 163.9 71.94H163.39C163.321 71.948 163.251 71.9403 163.186 71.9175C163.12 71.8947 163.061 71.8574 163.012 71.8083C162.963 71.7593 162.925 71.6998 162.902 71.6343C162.88 71.5687 162.872 71.4989 162.88 71.43V68.31C162.336 69.5384 161.436 70.5758 160.298 71.2887C159.159 72.0016 157.833 72.3573 156.49 72.31C151.87 72.27 148.93 68.82 148.93 64.47ZM162.93 64.47C162.966 63.6263 162.828 62.7842 162.523 61.9964C162.219 61.2087 161.755 60.4924 161.161 59.8925C160.566 59.2925 159.854 58.8218 159.07 58.5099C158.285 58.198 157.444 58.0517 156.6 58.08C152.79 58.08 150.45 60.9 150.45 64.47C150.45 68.04 152.79 70.92 156.6 70.92C157.449 70.9458 158.294 70.7957 159.082 70.4792C159.87 70.1628 160.585 69.6867 161.18 69.081C161.775 68.4753 162.239 67.753 162.542 66.9595C162.845 66.166 162.98 65.3184 162.94 64.47H162.93Z" fill="#3EC2CF"/>
<path d="M169.51 71.43V50.76C169.504 50.6915 169.513 50.6225 169.536 50.5578C169.56 50.4932 169.597 50.4344 169.646 50.3858C169.694 50.3372 169.753 50.2998 169.818 50.2763C169.882 50.2529 169.951 50.2439 170.02 50.25H170.53C170.599 50.242 170.669 50.2497 170.734 50.2725C170.8 50.2953 170.859 50.3326 170.908 50.3817C170.957 50.4307 170.995 50.4902 171.018 50.5557C171.04 50.6213 171.048 50.6911 171.04 50.76V60.42C171.462 59.3227 172.207 58.3795 173.176 57.7151C174.146 57.0508 175.295 56.6968 176.47 56.7C179.59 56.7 182.65 58.32 182.65 63.39V71.39C182.656 71.4585 182.647 71.5275 182.624 71.5922C182.6 71.6569 182.563 71.7156 182.514 71.7642C182.466 71.8128 182.407 71.8502 182.342 71.8737C182.278 71.8971 182.209 71.9061 182.14 71.9H181.6C181.533 71.9051 181.466 71.8952 181.403 71.8709C181.341 71.8466 181.284 71.8086 181.238 71.7597C181.192 71.7108 181.158 71.6522 181.137 71.5883C181.117 71.5243 181.111 71.4565 181.12 71.39V63.39C181.12 59.25 178.69 58.08 176.41 58.08C174.64 58.08 171.13 59.37 171.04 64.32V71.43C171.048 71.4989 171.04 71.5687 171.018 71.6343C170.995 71.6998 170.957 71.7593 170.908 71.8083C170.859 71.8574 170.8 71.8947 170.734 71.9175C170.669 71.9403 170.599 71.948 170.53 71.94H170.02C169.951 71.948 169.881 71.9403 169.816 71.9175C169.75 71.8947 169.691 71.8574 169.642 71.8083C169.593 71.7593 169.555 71.6998 169.532 71.6343C169.51 71.5687 169.502 71.4989 169.51 71.43V71.43Z" fill="#3EC2CF"/>
<path d="M186.22 64.53C186.202 62.9764 186.647 61.4526 187.498 60.1525C188.348 58.8524 189.567 57.8349 190.998 57.2293C192.428 56.6237 194.007 56.4575 195.533 56.7518C197.058 57.0461 198.462 57.7877 199.565 58.8821C200.668 59.9765 201.42 61.3742 201.726 62.8975C202.032 64.4208 201.878 66.0006 201.284 67.4361C200.689 68.8716 199.681 70.0977 198.387 70.9585C197.094 71.8193 195.574 72.2758 194.02 72.27C191.966 72.2571 189.998 71.4394 188.54 69.9923C187.082 68.5453 186.249 66.5842 186.22 64.53V64.53ZM200.35 64.53C200.35 63.7027 200.187 62.8834 199.87 62.1191C199.554 61.3547 199.09 60.6602 198.505 60.0752C197.92 59.4902 197.225 59.0262 196.461 58.7096C195.697 58.393 194.877 58.23 194.05 58.23C193.223 58.23 192.403 58.393 191.639 58.7096C190.875 59.0262 190.18 59.4902 189.595 60.0752C189.01 60.6602 188.546 61.3547 188.23 62.1191C187.913 62.8834 187.75 63.7027 187.75 64.53C187.75 65.3573 187.913 66.1766 188.23 66.9409C188.546 67.7053 189.01 68.3998 189.595 68.9848C190.18 69.5698 190.875 70.0338 191.639 70.3504C192.403 70.667 193.223 70.83 194.05 70.83C194.877 70.83 195.697 70.667 196.461 70.3504C197.225 70.0338 197.92 69.5698 198.505 68.9848C199.09 68.3998 199.554 67.7053 199.87 66.9409C200.187 66.1766 200.35 65.3573 200.35 64.53V64.53Z" fill="#3EC2CF"/>
<path d="M204.55 64.53C204.532 62.9764 204.977 61.4526 205.828 60.1525C206.678 58.8524 207.897 57.8349 209.328 57.2293C210.758 56.6237 212.337 56.4575 213.863 56.7518C215.388 57.0461 216.792 57.7877 217.895 58.8821C218.998 59.9765 219.75 61.3742 220.056 62.8975C220.362 64.4208 220.208 66.0006 219.614 67.4361C219.019 68.8716 218.011 70.0977 216.717 70.9585C215.424 71.8193 213.904 72.2758 212.35 72.27C210.296 72.2571 208.328 71.4394 206.87 69.9923C205.412 68.5453 204.579 66.5842 204.55 64.53V64.53ZM218.68 64.53C218.68 62.8591 218.016 61.2567 216.835 60.0752C215.653 58.8937 214.051 58.23 212.38 58.23C210.709 58.23 209.107 58.8937 207.925 60.0752C206.744 61.2567 206.08 62.8591 206.08 64.53C206.08 66.2009 206.744 67.8033 207.925 68.9848C209.107 70.1662 210.709 70.83 212.38 70.83C214.051 70.83 215.653 70.1662 216.835 68.9848C218.016 67.8033 218.68 66.2009 218.68 64.53V64.53Z" fill="#3EC2CF"/>
<path d="M222.91 64.47C222.91 60.15 225.85 56.7 230.47 56.7C231.813 56.6527 233.139 57.0084 234.278 57.7213C235.416 58.4342 236.316 59.4716 236.86 60.7V50.8C236.854 50.7315 236.863 50.6625 236.886 50.5978C236.91 50.5332 236.947 50.4744 236.996 50.4258C237.044 50.3772 237.103 50.3398 237.168 50.3163C237.232 50.2929 237.301 50.2839 237.37 50.29H237.88C237.949 50.282 238.019 50.2897 238.084 50.3125C238.15 50.3353 238.209 50.3726 238.258 50.4217C238.307 50.4707 238.345 50.5302 238.368 50.5957C238.39 50.6613 238.398 50.7311 238.39 50.8V71.43C238.396 71.4985 238.387 71.5675 238.364 71.6322C238.34 71.6969 238.303 71.7556 238.254 71.8042C238.206 71.8528 238.147 71.8902 238.082 71.9137C238.018 71.9371 237.949 71.9461 237.88 71.94H237.37C237.301 71.948 237.231 71.9403 237.166 71.9175C237.1 71.8947 237.041 71.8574 236.992 71.8083C236.943 71.7593 236.905 71.6998 236.882 71.6343C236.86 71.5687 236.852 71.4989 236.86 71.43V68.31C236.316 69.5384 235.416 70.5758 234.278 71.2887C233.139 72.0016 231.813 72.3573 230.47 72.31C225.85 72.27 222.91 68.82 222.91 64.47ZM236.91 64.47C236.946 63.6263 236.808 62.7842 236.503 61.9964C236.199 61.2087 235.735 60.4924 235.141 59.8925C234.546 59.2925 233.834 58.8218 233.05 58.5099C232.265 58.198 231.424 58.0517 230.58 58.08C226.77 58.08 224.43 60.9 224.43 64.47C224.43 68.04 226.77 70.92 230.58 70.92C231.429 70.9458 232.274 70.7957 233.062 70.4792C233.85 70.1628 234.565 69.6867 235.16 69.081C235.755 68.4753 236.219 67.753 236.522 66.9595C236.825 66.166 236.96 65.3184 236.92 64.47H236.91Z" fill="#3EC2CF"/>
<path d="M54.22 87.68C54.22 84.16 56.55 81.21 60.47 81.21C61.5912 81.167 62.6999 81.4577 63.6558 82.0451C64.6117 82.6325 65.3719 83.4904 65.84 84.51V81.91C65.8343 81.8547 65.8404 81.7988 65.8581 81.746C65.8758 81.6933 65.9045 81.6449 65.9424 81.6042C65.9803 81.5635 66.0264 81.5313 66.0778 81.5099C66.1291 81.4885 66.1844 81.4783 66.24 81.48H66.69C66.748 81.4737 66.8067 81.4804 66.8618 81.4998C66.9168 81.5192 66.9668 81.5507 67.0081 81.5919C67.0493 81.6332 67.0808 81.6832 67.1002 81.7382C67.1196 81.7933 67.1263 81.852 67.12 81.91V93.48C67.1247 93.5372 67.1168 93.5948 67.0967 93.6486C67.0766 93.7024 67.0449 93.7511 67.0038 93.7912C66.9628 93.8313 66.9133 93.8619 66.8591 93.8807C66.8048 93.8995 66.7471 93.9061 66.69 93.9H66.22C66.1645 93.9051 66.1085 93.8975 66.0563 93.8779C66.004 93.8583 65.9569 93.8271 65.9185 93.7867C65.88 93.7463 65.8512 93.6977 65.8341 93.6446C65.8171 93.5915 65.8122 93.5352 65.82 93.48V90.88C65.3584 91.894 64.6067 92.7486 63.6599 93.3359C62.7131 93.9232 61.6136 94.2169 60.5 94.18C59.6516 94.1978 58.8087 94.0402 58.024 93.7169C57.2394 93.3937 56.5301 92.9118 55.9404 92.3015C55.3508 91.6912 54.8936 90.9657 54.5976 90.1704C54.3015 89.3752 54.173 88.5273 54.22 87.68V87.68ZM65.87 87.68C65.9008 86.9774 65.7859 86.2761 65.5326 85.6201C65.2793 84.964 64.893 84.3674 64.3981 83.8678C63.9032 83.3682 63.3103 82.9764 62.6567 82.7169C62.0031 82.4574 61.3028 82.3359 60.6 82.36C57.35 82.36 55.5 84.78 55.5 87.68C55.5 90.58 57.42 93.05 60.62 93.05C61.3265 93.0716 62.0297 92.9466 62.6855 92.6831C63.3413 92.4195 63.9354 92.023 64.4305 91.5186C64.9255 91.0141 65.3108 90.4127 65.562 89.752C65.8132 89.0914 65.9248 88.3859 65.89 87.68H65.87Z" fill="#EF4D7F"/>
<path d="M70.42 87.68C70.3756 86.8331 70.5068 85.9861 70.8055 85.1923C71.1041 84.3986 71.5637 83.6751 72.1554 83.0675C72.747 82.4599 73.4579 81.9812 74.2435 81.6616C75.029 81.3419 75.8722 81.1881 76.72 81.21C77.8346 81.1677 78.9364 81.4592 79.8842 82.0472C80.832 82.6351 81.5827 83.4927 82.04 84.51V76.26C82.0357 76.2033 82.0435 76.1463 82.0629 76.0928C82.0823 76.0393 82.1129 75.9906 82.1527 75.9499C82.1924 75.9092 82.2404 75.8775 82.2934 75.8568C82.3464 75.8361 82.4032 75.827 82.46 75.83H82.89C82.9476 75.8233 83.0061 75.83 83.0607 75.8494C83.1154 75.8688 83.1649 75.9004 83.2055 75.942C83.246 75.9835 83.2765 76.0337 83.2947 76.0888C83.3128 76.144 83.318 76.2025 83.31 76.26V93.48C83.3145 93.5363 83.3068 93.5929 83.2873 93.6459C83.2678 93.6989 83.237 93.7471 83.197 93.787C83.1571 93.827 83.1089 93.8578 83.0559 93.8773C83.0029 93.8968 82.9463 93.9045 82.89 93.9H82.46C82.4033 93.9064 82.3459 93.8999 82.292 93.881C82.2382 93.8622 82.1893 93.8314 82.1489 93.7911C82.1086 93.7507 82.0778 93.7018 82.059 93.648C82.0401 93.5941 82.0336 93.5367 82.04 93.48V90.88C81.5827 91.8973 80.832 92.7549 79.8842 93.3428C78.9364 93.9308 77.8346 94.2223 76.72 94.18C75.8699 94.2006 75.0248 94.0451 74.2378 93.7231C73.4508 93.401 72.739 92.9196 72.1472 92.309C71.5554 91.6984 71.0964 90.9719 70.7992 90.1753C70.5019 89.3786 70.3728 88.529 70.42 87.68V87.68ZM82.09 87.68C82.1208 86.9774 82.0059 86.2761 81.7526 85.62C81.4993 84.964 81.113 84.3674 80.6181 83.8678C80.1232 83.3682 79.5303 82.9764 78.8767 82.7169C78.2231 82.4574 77.5228 82.3359 76.82 82.36C75.4424 82.4196 74.141 83.0088 73.1873 84.0046C72.2336 85.0005 71.7012 86.3261 71.7012 87.705C71.7012 89.0839 72.2336 90.4095 73.1873 91.4054C74.141 92.4012 75.4424 92.9904 76.82 93.05C77.526 93.0701 78.2286 92.9441 78.8837 92.68C79.5389 92.4159 80.1324 92.0194 80.6271 91.5153C81.1218 91.0111 81.5071 90.4103 81.7589 89.7503C82.0106 89.0904 82.1233 88.3855 82.09 87.68Z" fill="#EF4D7F"/>
<path d="M90.99 93.58L86.32 82C86.22 81.7 86.32 81.52 86.64 81.52H87.12C87.2272 81.5126 87.3336 81.5438 87.4198 81.608C87.506 81.6722 87.5664 81.7651 87.59 81.87L91.82 92.45L96.06 81.83C96.0857 81.7243 96.1481 81.6312 96.2359 81.5671C96.3238 81.5031 96.4315 81.4722 96.54 81.48H97.01C97.31 81.48 97.44 81.66 97.34 81.96L92.67 93.58C92.6346 93.6817 92.5661 93.7685 92.4754 93.8266C92.3847 93.8846 92.2772 93.9105 92.17 93.9H91.49C91.3828 93.9105 91.2753 93.8846 91.1846 93.8266C91.0939 93.7685 91.0254 93.6817 90.99 93.58V93.58Z" fill="#EF4D7F"/>
<path d="M100.07 77.13C100.07 76.8648 100.175 76.6104 100.363 76.4229C100.55 76.2354 100.805 76.13 101.07 76.13C101.335 76.13 101.59 76.2354 101.777 76.4229C101.965 76.6104 102.07 76.8648 102.07 77.13C102.07 77.3952 101.965 77.6496 101.777 77.8371C101.59 78.0246 101.335 78.13 101.07 78.13C100.805 78.13 100.55 78.0246 100.363 77.8371C100.175 77.6496 100.07 77.3952 100.07 77.13ZM100.44 93.48V81.91C100.434 81.8547 100.44 81.7988 100.458 81.746C100.476 81.6933 100.504 81.6449 100.542 81.6042C100.58 81.5635 100.626 81.5313 100.678 81.5099C100.729 81.4885 100.784 81.4783 100.84 81.48H101.29C101.348 81.4737 101.407 81.4804 101.462 81.4998C101.517 81.5192 101.567 81.5507 101.608 81.5919C101.649 81.6332 101.681 81.6832 101.7 81.7382C101.72 81.7933 101.726 81.852 101.72 81.91V93.48C101.725 93.5372 101.717 93.5948 101.697 93.6486C101.677 93.7024 101.645 93.7511 101.604 93.7912C101.563 93.8313 101.513 93.8619 101.459 93.8807C101.405 93.8995 101.347 93.9061 101.29 93.9H100.84C100.784 93.9051 100.728 93.8975 100.676 93.8779C100.624 93.8583 100.577 93.8271 100.538 93.7867C100.5 93.7463 100.471 93.6977 100.454 93.6446C100.437 93.5915 100.432 93.5352 100.44 93.48V93.48Z" fill="#EF4D7F"/>
<path d="M105.02 92C104.989 91.9512 104.971 91.8954 104.968 91.8378C104.964 91.7802 104.976 91.7227 105.001 91.6706C105.026 91.6186 105.064 91.5738 105.111 91.5405C105.158 91.5071 105.213 91.4863 105.27 91.48L105.64 91.35C105.87 91.28 106.02 91.35 106.17 91.58C106.495 92.0738 106.942 92.4757 107.467 92.7471C107.993 93.0185 108.579 93.1504 109.17 93.13C109.517 93.1657 109.867 93.1316 110.201 93.0295C110.534 92.9275 110.844 92.7597 111.112 92.5359C111.379 92.3122 111.599 92.0371 111.759 91.7269C111.918 91.4168 112.014 91.0778 112.04 90.73C112.04 89.68 111.34 88.93 110.04 88.5L108.16 87.9C106.59 87.43 105.31 86.5 105.31 84.73C105.313 84.2349 105.42 83.7459 105.622 83.2942C105.825 82.8426 106.12 82.4382 106.488 82.107C106.856 81.7757 107.289 81.5248 107.759 81.3704C108.23 81.2159 108.727 81.1613 109.22 81.21C109.917 81.1899 110.606 81.3669 111.208 81.7207C111.809 82.0745 112.299 82.5906 112.62 83.21C112.74 83.48 112.62 83.66 112.34 83.73L112.01 83.83C111.912 83.8669 111.803 83.8647 111.706 83.8238C111.609 83.7828 111.532 83.7063 111.49 83.61C111.259 83.2151 110.926 82.8885 110.528 82.6637C110.129 82.4389 109.678 82.3237 109.22 82.33C108.893 82.3027 108.564 82.3421 108.253 82.4458C107.942 82.5495 107.655 82.7154 107.41 82.9333C107.165 83.1512 106.967 83.4166 106.828 83.7134C106.689 84.0102 106.611 84.3323 106.6 84.66C106.6 85.91 107.6 86.5 108.6 86.8L110.5 87.4C112.5 88.03 113.29 89.28 113.29 90.68C113.29 92.85 111.37 94.18 109.17 94.18C108.346 94.2274 107.524 94.0496 106.793 93.6656C106.062 93.2815 105.449 92.7058 105.02 92V92Z" fill="#EF4D7F"/>
<path d="M115.44 87.73C115.424 86.4339 115.794 85.1624 116.503 84.0775C117.213 82.9925 118.229 82.1431 119.422 81.6374C120.616 81.1318 121.933 80.9928 123.205 81.2381C124.478 81.4834 125.649 82.1019 126.569 83.0149C127.489 83.9279 128.117 85.094 128.372 86.3648C128.627 87.6356 128.498 88.9536 128.002 90.151C127.505 91.3483 126.664 92.3708 125.584 93.0883C124.505 93.8058 123.236 94.1859 121.94 94.18C120.228 94.1697 118.588 93.4884 117.373 92.2824C116.157 91.0764 115.464 89.442 115.44 87.73V87.73ZM127.21 87.73C127.241 87.022 127.128 86.315 126.879 85.6517C126.629 84.9884 126.248 84.3825 125.757 83.8705C125.267 83.3585 124.679 82.9511 124.027 82.6728C123.375 82.3944 122.674 82.2509 121.965 82.2509C121.256 82.2509 120.555 82.3944 119.903 82.6728C119.251 82.9511 118.663 83.3585 118.173 83.8705C117.682 84.3825 117.301 84.9884 117.051 85.6517C116.802 86.315 116.689 87.022 116.72 87.73C116.689 88.4381 116.802 89.145 117.051 89.8083C117.301 90.4716 117.682 91.0775 118.173 91.5895C118.663 92.1015 119.251 92.5089 119.903 92.7872C120.555 93.0656 121.256 93.2091 121.965 93.2091C122.674 93.2091 123.375 93.0656 124.027 92.7872C124.679 92.5089 125.267 92.1015 125.757 91.5895C126.248 91.0775 126.629 90.4716 126.879 89.8083C127.128 89.145 127.241 88.4381 127.21 87.73V87.73Z" fill="#EF4D7F"/>
<path d="M131.72 93.48V81.91C131.716 81.8533 131.723 81.7963 131.743 81.7428C131.762 81.6893 131.793 81.6406 131.833 81.5999C131.872 81.5592 131.92 81.5275 131.973 81.5068C132.026 81.4861 132.083 81.477 132.14 81.48H132.57C132.628 81.4733 132.686 81.48 132.741 81.4994C132.795 81.5188 132.845 81.5505 132.885 81.592C132.926 81.6335 132.957 81.6837 132.975 81.7389C132.993 81.794 132.998 81.8525 132.99 81.91V84.73C133.52 82.66 134.82 81.21 136.99 81.21C137.194 81.2117 137.398 81.2285 137.6 81.26C137.85 81.26 137.92 81.48 137.92 81.71V82.13C137.92 82.41 137.79 82.53 137.57 82.48C137.35 82.43 137.1 82.48 136.94 82.48C134.35 82.48 133 85.13 132.94 89.18V93.53C132.946 93.5867 132.94 93.6441 132.921 93.698C132.902 93.7518 132.871 93.8007 132.831 93.8411C132.791 93.8814 132.742 93.9122 132.688 93.931C132.634 93.9499 132.577 93.9564 132.52 93.95H132.09C132.032 93.9501 131.975 93.9371 131.924 93.912C131.872 93.8869 131.826 93.8503 131.791 93.8051C131.755 93.7598 131.73 93.707 131.718 93.6507C131.706 93.5944 131.706 93.536 131.72 93.48V93.48Z" fill="#EF4D7F"/>
<path d="M142.07 99L144.07 94L138.87 82C138.74 81.7 138.87 81.5 139.19 81.5H139.77C139.873 81.4986 139.974 81.5297 140.058 81.5889C140.143 81.6482 140.206 81.7325 140.24 81.83L144.76 92.57L149.11 81.85C149.138 81.7417 149.204 81.647 149.295 81.5828C149.387 81.5186 149.499 81.4893 149.61 81.5H150.22C150.52 81.5 150.67 81.68 150.54 82L143.22 99.18C143.186 99.2765 143.122 99.3595 143.037 99.4171C142.953 99.4746 142.852 99.5037 142.75 99.5H142.37C142.09 99.5 141.94 99.33 142.07 99Z" fill="#EF4D7F"/>
<path d="M158.67 87.75C158.67 84.13 161.19 81.21 165.67 81.21C167.09 81.2243 168.477 81.6404 169.67 82.41C169.723 82.4322 169.769 82.4666 169.806 82.5104C169.843 82.5541 169.868 82.606 169.881 82.6617C169.894 82.7174 169.893 82.7753 169.879 82.8306C169.865 82.886 169.838 82.9372 169.8 82.98L169.62 83.21C169.552 83.3007 169.452 83.3618 169.34 83.3804C169.228 83.399 169.114 83.3738 169.02 83.31C168.048 82.6702 166.913 82.3231 165.75 82.31C162.18 82.31 160 84.63 159.95 87.65C159.9 90.67 162.18 93 165.75 93C166.912 92.9787 168.045 92.6323 169.02 92C169.066 91.9653 169.119 91.9407 169.175 91.9279C169.232 91.9151 169.29 91.9143 169.347 91.9256C169.404 91.9369 169.457 91.9601 169.504 91.9936C169.551 92.0271 169.591 92.0702 169.62 92.12L169.77 92.35C169.92 92.57 169.82 92.82 169.42 93.05C168.294 93.7203 167.011 94.0824 165.7 94.1C161.22 94.18 158.74 91.33 158.67 87.75Z" fill="#EF4D7F"/>
<path d="M171.74 87.73C171.724 86.4339 172.094 85.1624 172.803 84.0775C173.513 82.9925 174.529 82.1431 175.722 81.6374C176.916 81.1318 178.233 80.9928 179.505 81.2381C180.778 81.4834 181.949 82.1019 182.869 83.0149C183.789 83.9279 184.417 85.094 184.672 86.3648C184.927 87.6356 184.798 88.9536 184.302 90.151C183.805 91.3483 182.964 92.3708 181.884 93.0883C180.805 93.8058 179.536 94.1859 178.24 94.18C176.528 94.1697 174.888 93.4884 173.673 92.2824C172.457 91.0764 171.764 89.442 171.74 87.73V87.73ZM183.51 87.73C183.541 87.022 183.428 86.315 183.179 85.6517C182.929 84.9884 182.548 84.3825 182.057 83.8705C181.567 83.3585 180.979 82.9511 180.327 82.6728C179.675 82.3944 178.974 82.2509 178.265 82.2509C177.556 82.2509 176.855 82.3944 176.203 82.6728C175.551 82.9511 174.963 83.3585 174.473 83.8705C173.982 84.3825 173.601 84.9884 173.351 85.6517C173.102 86.315 172.989 87.022 173.02 87.73C172.989 88.4381 173.102 89.145 173.351 89.8083C173.601 90.4716 173.982 91.0775 174.473 91.5895C174.963 92.1015 175.551 92.5089 176.203 92.7872C176.855 93.0656 177.556 93.2091 178.265 93.2091C178.974 93.2091 179.675 93.0656 180.327 92.7872C180.979 92.5089 181.567 92.1015 182.057 91.5895C182.548 91.0775 182.929 90.4716 183.179 89.8083C183.428 89.145 183.541 88.4381 183.51 87.73V87.73Z" fill="#EF4D7F"/>
<path d="M187.82 88.6V81.91C187.814 81.8547 187.82 81.7988 187.838 81.746C187.856 81.6933 187.884 81.6449 187.922 81.6042C187.96 81.5635 188.006 81.5313 188.058 81.5099C188.109 81.4885 188.164 81.4783 188.22 81.48H188.67C188.726 81.4765 188.782 81.4855 188.834 81.5064C188.886 81.5272 188.933 81.5593 188.972 81.6005C189.01 81.6416 189.039 81.6907 189.056 81.7442C189.073 81.7977 189.078 81.8543 189.07 81.91V88.6C189.07 92.08 191.07 93.05 192.99 93.05C194.46 93.05 197.41 91.95 197.46 87.83V81.91C197.454 81.852 197.46 81.7933 197.48 81.7382C197.499 81.6832 197.531 81.6332 197.572 81.5919C197.613 81.5507 197.663 81.5192 197.718 81.4998C197.773 81.4804 197.832 81.4737 197.89 81.48H198.31C198.368 81.4737 198.427 81.4804 198.482 81.4998C198.537 81.5192 198.587 81.5507 198.628 81.5919C198.669 81.6332 198.701 81.6832 198.72 81.7382C198.74 81.7933 198.746 81.852 198.74 81.91V93.48C198.745 93.5372 198.737 93.5948 198.717 93.6486C198.697 93.7024 198.665 93.7511 198.624 93.7912C198.583 93.8313 198.533 93.8619 198.479 93.8807C198.425 93.8995 198.367 93.9061 198.31 93.9H197.89C197.833 93.908 197.774 93.9028 197.719 93.8846C197.664 93.8665 197.613 93.836 197.572 93.7955C197.53 93.7549 197.499 93.7054 197.479 93.6507C197.46 93.5961 197.453 93.5376 197.46 93.48V91.08C197.112 91.9955 196.492 92.7828 195.685 93.3368C194.877 93.8907 193.919 94.1849 192.94 94.18C190.34 94.18 187.82 92.85 187.82 88.6Z" fill="#EF4D7F"/>
<path d="M202.99 93.48V81.91C202.985 81.8524 202.994 81.7945 203.014 81.7403C203.034 81.686 203.065 81.6368 203.106 81.5959C203.147 81.5551 203.196 81.5235 203.25 81.5035C203.304 81.4835 203.362 81.4755 203.42 81.48H203.84C203.898 81.4737 203.957 81.4804 204.012 81.4998C204.067 81.5192 204.117 81.5507 204.158 81.5919C204.199 81.6332 204.231 81.6832 204.25 81.7382C204.27 81.7933 204.276 81.852 204.27 81.91V84.31C204.619 83.3953 205.239 82.6088 206.046 82.055C206.854 81.5012 207.811 81.2065 208.79 81.21C211.39 81.21 213.94 82.56 213.94 86.78V93.48C213.945 93.5372 213.937 93.5948 213.917 93.6486C213.897 93.7024 213.865 93.7511 213.824 93.7912C213.783 93.8313 213.733 93.8619 213.679 93.8807C213.625 93.8995 213.567 93.9061 213.51 93.9H213.06C213.004 93.9051 212.948 93.8975 212.896 93.8779C212.844 93.8583 212.797 93.8271 212.758 93.7867C212.72 93.7463 212.691 93.6977 212.674 93.6446C212.657 93.5915 212.652 93.5352 212.66 93.48V86.78C212.66 83.33 210.66 82.36 208.74 82.36C207.26 82.36 204.34 83.43 204.27 87.55V93.48C204.277 93.5376 204.27 93.5961 204.251 93.6507C204.231 93.7054 204.2 93.7549 204.158 93.7955C204.117 93.836 204.066 93.8665 204.011 93.8847C203.956 93.9028 203.897 93.908 203.84 93.9H203.42C203.363 93.908 203.304 93.9028 203.249 93.8847C203.194 93.8665 203.143 93.836 203.102 93.7955C203.06 93.7549 203.029 93.7054 203.009 93.6507C202.99 93.5961 202.983 93.5376 202.99 93.48V93.48Z" fill="#EF4D7F"/>
<path d="M216.99 87.75C216.99 84.13 219.52 81.21 223.99 81.21C225.409 81.227 226.796 81.6429 227.99 82.41C228.042 82.4332 228.087 82.4684 228.123 82.5126C228.159 82.5568 228.184 82.6088 228.195 82.6644C228.207 82.72 228.205 82.7776 228.19 82.8324C228.176 82.8873 228.148 82.9379 228.11 82.98L227.94 83.21C227.872 83.3007 227.772 83.3618 227.66 83.3804C227.548 83.399 227.434 83.3738 227.34 83.31C226.365 82.6699 225.226 82.3228 224.06 82.31C220.49 82.31 218.32 84.63 218.27 87.65C218.22 90.67 220.49 93 224.06 93C225.225 92.979 226.361 92.6326 227.34 92C227.386 91.9653 227.439 91.9407 227.495 91.9279C227.552 91.9151 227.61 91.9143 227.667 91.9256C227.724 91.9369 227.777 91.9601 227.824 91.9936C227.871 92.0271 227.911 92.0702 227.94 92.12L228.09 92.35C228.24 92.57 228.09 92.82 227.74 93.05C226.61 93.7198 225.324 94.0818 224.01 94.1C219.57 94.18 217.07 91.33 216.99 87.75Z" fill="#EF4D7F"/>
<path d="M231.12 77.13C231.12 76.8648 231.225 76.6104 231.413 76.4229C231.6 76.2354 231.855 76.13 232.12 76.13C232.337 76.1162 232.553 76.1689 232.739 76.2809C232.926 76.393 233.073 76.5591 233.163 76.7572C233.252 76.9553 233.279 77.176 233.24 77.3899C233.201 77.6038 233.098 77.8007 232.944 77.9545C232.791 78.1082 232.594 78.2114 232.38 78.2505C232.166 78.2895 231.945 78.2624 231.747 78.1729C231.549 78.0834 231.383 77.9356 231.271 77.7493C231.159 77.563 231.106 77.347 231.12 77.13V77.13ZM231.49 93.48V81.91C231.484 81.8547 231.49 81.7988 231.508 81.746C231.526 81.6933 231.554 81.6449 231.592 81.6042C231.63 81.5635 231.676 81.5313 231.728 81.5099C231.779 81.4885 231.834 81.4783 231.89 81.48H232.34C232.398 81.4733 232.456 81.48 232.511 81.4994C232.565 81.5188 232.615 81.5505 232.655 81.592C232.696 81.6335 232.727 81.6837 232.745 81.7389C232.763 81.794 232.768 81.8525 232.76 81.91V93.48C232.766 93.5367 232.76 93.5941 232.741 93.648C232.722 93.7018 232.691 93.7507 232.651 93.7911C232.611 93.8314 232.562 93.8622 232.508 93.881C232.454 93.8999 232.397 93.9064 232.34 93.9H231.89C231.834 93.9051 231.778 93.8975 231.726 93.8779C231.674 93.8583 231.627 93.8271 231.588 93.7867C231.55 93.7463 231.521 93.6977 231.504 93.6446C231.487 93.5915 231.482 93.5352 231.49 93.48V93.48Z" fill="#EF4D7F"/>
<path d="M237.22 93.48V76.26C237.214 76.2047 237.22 76.1488 237.238 76.096C237.256 76.0433 237.284 75.9949 237.322 75.9542C237.36 75.9135 237.406 75.8813 237.458 75.8599C237.509 75.8385 237.564 75.8283 237.62 75.83H238.07C238.128 75.8233 238.186 75.83 238.241 75.8494C238.295 75.8688 238.345 75.9004 238.385 75.942C238.426 75.9835 238.457 76.0337 238.475 76.0888C238.493 76.144 238.498 76.2025 238.49 76.26V93.48C238.496 93.5367 238.49 93.5941 238.471 93.648C238.452 93.7018 238.421 93.7507 238.381 93.7911C238.341 93.8314 238.292 93.8622 238.238 93.881C238.184 93.8999 238.127 93.9064 238.07 93.9H237.62C237.564 93.9051 237.508 93.8975 237.456 93.8779C237.404 93.8583 237.357 93.8271 237.318 93.7867C237.28 93.7463 237.251 93.6977 237.234 93.6446C237.217 93.5915 237.212 93.5352 237.22 93.48V93.48Z" fill="#EF4D7F"/>
<path d="M160.11 103.91C160.269 103.126 160.686 102.417 161.295 101.899C161.905 101.38 162.67 101.081 163.47 101.05C163.827 101.04 164.182 101.112 164.508 101.259C164.834 101.407 165.121 101.628 165.349 101.903C165.576 102.179 165.738 102.503 165.821 102.851C165.905 103.199 165.908 103.561 165.83 103.91C165.668 104.692 165.248 105.397 164.636 105.91C164.025 106.424 163.258 106.716 162.46 106.74C162.104 106.755 161.75 106.688 161.424 106.544C161.098 106.4 160.811 106.182 160.583 105.908C160.356 105.634 160.194 105.311 160.112 104.964C160.03 104.618 160.029 104.257 160.11 103.91V103.91ZM165.28 103.91C165.345 103.626 165.345 103.331 165.279 103.046C165.214 102.762 165.085 102.497 164.902 102.27C164.719 102.042 164.487 101.86 164.224 101.735C163.96 101.61 163.672 101.547 163.38 101.55C162.73 101.587 162.111 101.838 161.621 102.266C161.13 102.693 160.796 103.272 160.67 103.91C160.601 104.192 160.597 104.486 160.66 104.769C160.723 105.053 160.85 105.318 161.032 105.544C161.214 105.771 161.445 105.952 161.709 106.074C161.972 106.197 162.26 106.257 162.55 106.25C163.201 106.222 163.825 105.976 164.32 105.552C164.815 105.128 165.153 104.549 165.28 103.91V103.91Z" fill="#6D7282"/>
<path d="M167 106.44L167.85 101.63H167.03C166.94 101.63 166.91 101.63 166.93 101.51V101.29C166.93 101.2 167 101.17 167.08 101.17H167.91L167.99 100.68C168.28 99.01 169.23 98.57 169.99 98.57C170.99 98.57 171.39 99.14 171.26 99.88C171.26 99.88 171.26 99.99 171.19 100.08C171.12 100.17 171.13 100.15 171.06 100.15H170.79C170.72 100.15 170.67 100.15 170.7 100.03C170.73 99.91 170.7 99.89 170.7 99.88C170.78 99.41 170.48 99.06 169.86 99.06C169.24 99.06 168.68 99.48 168.48 100.61L168.38 101.17H169.87C169.95 101.17 169.99 101.17 169.97 101.29V101.51C169.965 101.544 169.948 101.574 169.923 101.596C169.897 101.618 169.864 101.63 169.83 101.63H168.33L167.48 106.44C167.479 106.466 167.472 106.491 167.461 106.515C167.45 106.538 167.434 106.558 167.414 106.575C167.394 106.592 167.371 106.605 167.347 106.613C167.322 106.62 167.296 106.623 167.27 106.62H167.06C167.013 106.62 166.993 106.56 167 106.44Z" fill="#6D7282"/>
<path d="M175.34 106.47L174.28 99.15C174.275 99.1222 174.277 99.0936 174.285 99.0666C174.293 99.0396 174.307 99.0149 174.327 98.9944C174.346 98.974 174.37 98.9584 174.397 98.9489C174.424 98.9395 174.452 98.9364 174.48 98.94H174.69C174.712 98.9386 174.735 98.9417 174.756 98.949C174.777 98.9563 174.796 98.9678 174.813 98.9826C174.83 98.9975 174.844 99.0155 174.853 99.0356C174.863 99.0558 174.869 99.0777 174.87 99.1L175.82 105.73L178.96 99.35C178.976 99.3026 179.007 99.262 179.049 99.2347C179.091 99.2075 179.14 99.1952 179.19 99.2H179.4C179.5 99.2 179.55 99.2 179.57 99.35L180.44 105.7L183.73 99.1C183.749 99.0518 183.782 99.0105 183.825 98.9819C183.868 98.9532 183.918 98.9386 183.97 98.94H184.22C184.34 98.94 184.39 99.02 184.33 99.15L180.69 106.47C180.67 106.516 180.636 106.555 180.593 106.582C180.55 106.609 180.5 106.622 180.45 106.62H180.22C180.11 106.62 180.04 106.62 180.03 106.47L179.16 100.08L176.04 106.47C176.02 106.515 175.988 106.553 175.947 106.579C175.907 106.606 175.859 106.62 175.81 106.62H175.54C175.517 106.628 175.492 106.631 175.467 106.627C175.443 106.623 175.42 106.614 175.4 106.599C175.38 106.584 175.364 106.564 175.354 106.542C175.343 106.519 175.339 106.495 175.34 106.47V106.47Z" fill="#6D7282"/>
<path d="M184.05 103.91C184.208 103.114 184.633 102.397 185.255 101.876C185.877 101.356 186.659 101.064 187.47 101.05C187.797 101.019 188.126 101.065 188.431 101.185C188.737 101.305 189.009 101.496 189.227 101.742C189.444 101.988 189.601 102.282 189.683 102.599C189.765 102.917 189.771 103.25 189.7 103.57C189.7 103.597 189.695 103.623 189.684 103.648C189.673 103.672 189.657 103.694 189.637 103.712C189.618 103.73 189.594 103.743 189.569 103.752C189.543 103.76 189.517 103.763 189.49 103.76H184.64C184.543 104.066 184.523 104.391 184.584 104.706C184.645 105.021 184.783 105.315 184.987 105.563C185.191 105.811 185.454 106.003 185.751 106.123C186.049 106.243 186.371 106.287 186.69 106.25C187.377 106.247 188.045 106.019 188.59 105.6C188.69 105.6 188.78 105.54 188.85 105.6L188.91 105.69C188.97 105.78 188.96 105.88 188.82 105.98C188.182 106.473 187.396 106.734 186.59 106.72C186.222 106.764 185.848 106.719 185.5 106.589C185.153 106.459 184.842 106.247 184.593 105.972C184.344 105.697 184.165 105.366 184.071 105.007C183.976 104.648 183.969 104.272 184.05 103.91V103.91ZM189.18 103.32C189.205 103.08 189.176 102.838 189.096 102.61C189.015 102.383 188.885 102.176 188.714 102.006C188.544 101.835 188.337 101.705 188.11 101.624C187.882 101.544 187.64 101.515 187.4 101.54C186.837 101.548 186.289 101.721 185.823 102.037C185.358 102.354 184.995 102.8 184.78 103.32H189.18Z" fill="#6D7282"/>
<path d="M190.22 105.77C190.17 105.65 190.22 105.57 190.36 105.54L190.54 105.48C190.65 105.48 190.7 105.48 190.76 105.58C190.868 105.804 191.041 105.989 191.258 106.111C191.474 106.232 191.723 106.285 191.97 106.26C192.295 106.278 192.617 106.183 192.881 105.992C193.145 105.801 193.336 105.525 193.42 105.21C193.5 104.75 193.26 104.42 192.72 104.21L191.95 103.95C191.29 103.74 190.8 103.33 190.95 102.56C191.045 102.118 191.293 101.722 191.649 101.443C192.005 101.164 192.448 101.017 192.9 101.03C193.19 101.006 193.479 101.079 193.722 101.239C193.965 101.398 194.147 101.635 194.24 101.91C194.24 102.02 194.24 102.09 194.09 102.14H193.94C193.919 102.148 193.897 102.152 193.874 102.151C193.852 102.15 193.83 102.145 193.809 102.136C193.789 102.127 193.77 102.113 193.755 102.097C193.74 102.08 193.728 102.061 193.72 102.04C193.645 101.87 193.521 101.726 193.365 101.627C193.208 101.527 193.026 101.476 192.84 101.48C192.535 101.47 192.236 101.563 191.99 101.744C191.745 101.926 191.569 102.185 191.49 102.48C191.4 103.03 191.81 103.3 192.21 103.48L192.99 103.74C193.153 103.762 193.31 103.818 193.451 103.904C193.591 103.991 193.712 104.105 193.806 104.24C193.9 104.376 193.965 104.529 193.997 104.691C194.028 104.853 194.026 105.019 193.99 105.18C193.88 105.641 193.609 106.049 193.226 106.329C192.843 106.609 192.373 106.744 191.9 106.71C191.556 106.754 191.208 106.686 190.905 106.517C190.603 106.347 190.363 106.086 190.22 105.77V105.77Z" fill="#6D7282"/>
<path d="M195.48 104.94L196.06 101.63H195.22C195.13 101.63 195.1 101.63 195.12 101.51V101.29C195.12 101.2 195.19 101.17 195.27 101.17H196.11L196.51 99.59C196.512 99.5676 196.519 99.5459 196.53 99.5262C196.541 99.5066 196.556 99.4892 196.574 99.4753C196.591 99.4613 196.612 99.451 196.633 99.4449C196.655 99.4389 196.678 99.4372 196.7 99.44H196.8C196.91 99.44 196.96 99.44 196.94 99.59L196.66 101.17H198.34C198.43 101.17 198.46 101.17 198.45 101.29L198.4 101.51C198.4 101.6 198.34 101.63 198.26 101.63H196.62L196.03 104.98C195.84 105.98 196.29 106.25 196.78 106.25C197.034 106.267 197.286 106.187 197.483 106.025C197.68 105.864 197.807 105.633 197.84 105.38C197.848 105.317 197.848 105.253 197.84 105.19C197.84 105.09 197.89 105.05 197.97 105.05H198.22C198.234 105.049 198.249 105.05 198.263 105.054C198.277 105.059 198.29 105.066 198.301 105.075C198.312 105.084 198.321 105.096 198.328 105.109C198.335 105.121 198.339 105.136 198.34 105.15C198.356 105.246 198.356 105.344 198.34 105.44C198.272 105.823 198.065 106.168 197.759 106.407C197.452 106.647 197.068 106.766 196.68 106.74C195.93 106.74 195.22 106.41 195.48 104.94Z" fill="#6D7282"/>
<path d="M204.4 106.48L203.03 99.15C203.03 99.01 203.09 98.94 203.22 98.94H203.45C203.472 98.937 203.495 98.9389 203.516 98.9457C203.537 98.9525 203.557 98.964 203.573 98.9794C203.59 98.9947 203.602 99.0135 203.61 99.0344C203.618 99.0553 203.622 99.0777 203.62 99.1L204.86 105.84L208.48 99.1C208.501 99.0518 208.537 99.011 208.581 98.9826C208.625 98.9541 208.677 98.9393 208.73 98.94H208.98C209.1 98.94 209.13 99.03 209.08 99.15L205.08 106.48C205.061 106.525 205.029 106.562 204.988 106.587C204.946 106.612 204.898 106.624 204.85 106.62H204.57C204.49 106.62 204.42 106.59 204.4 106.48Z" fill="#6D7282"/>
<path d="M208.8 106.44L209.7 101.36C209.707 101.309 209.732 101.261 209.77 101.227C209.809 101.192 209.858 101.172 209.91 101.17H210.11C210.23 101.17 210.27 101.24 210.26 101.36L209.35 106.44C209.349 106.466 209.342 106.491 209.331 106.515C209.32 106.538 209.304 106.558 209.284 106.575C209.264 106.592 209.241 106.605 209.217 106.613C209.192 106.62 209.166 106.623 209.14 106.62H208.95C208.843 106.62 208.793 106.56 208.8 106.44ZM209.91 99.26C209.927 99.1353 209.987 99.0205 210.08 98.9362C210.174 98.8519 210.294 98.8037 210.42 98.8C210.477 98.7971 210.534 98.8081 210.585 98.8321C210.637 98.8561 210.682 98.8923 210.716 98.9376C210.751 98.9829 210.774 99.036 210.783 99.0922C210.792 99.1484 210.788 99.206 210.77 99.26C210.758 99.3874 210.699 99.5057 210.605 99.5924C210.511 99.6792 210.388 99.7281 210.26 99.73C210.01 99.73 209.86 99.55 209.91 99.26V99.26Z" fill="#6D7282"/>
<path d="M211.22 106.44L212.12 101.36C212.125 101.306 212.151 101.256 212.192 101.221C212.233 101.185 212.286 101.167 212.34 101.17H212.52C212.65 101.17 212.7 101.23 212.68 101.36L212.46 102.6C212.598 102.17 212.863 101.792 213.22 101.516C213.577 101.239 214.009 101.077 214.46 101.05H214.72C214.83 101.05 214.84 101.14 214.82 101.25V101.45C214.82 101.58 214.74 101.62 214.64 101.6H214.37C213.23 101.6 212.43 102.76 212.11 104.54L211.77 106.45C211.768 106.476 211.76 106.502 211.747 106.525C211.735 106.549 211.718 106.569 211.698 106.586C211.677 106.603 211.654 106.615 211.628 106.623C211.603 106.63 211.576 106.633 211.55 106.63H211.36C211.27 106.62 211.22 106.57 211.22 106.44Z" fill="#6D7282"/>
<path d="M214.41 108.59C214.32 108.53 214.32 108.44 214.41 108.35L214.48 108.22C214.57 108.1 214.65 108.09 214.74 108.16C215.271 108.551 215.921 108.746 216.58 108.71C217.212 108.726 217.827 108.508 218.309 108.098C218.79 107.689 219.104 107.116 219.19 106.49L219.4 105.3C219.13 105.744 218.749 106.11 218.295 106.362C217.841 106.615 217.329 106.745 216.81 106.74C216.453 106.764 216.096 106.7 215.769 106.555C215.441 106.41 215.154 106.188 214.932 105.908C214.71 105.628 214.559 105.298 214.492 104.946C214.426 104.595 214.446 104.232 214.55 103.89C214.664 103.107 215.055 102.391 215.651 101.87C216.246 101.349 217.009 101.058 217.8 101.05C218.262 101.012 218.724 101.135 219.105 101.4C219.487 101.664 219.764 102.053 219.89 102.5L220.1 101.36C220.101 101.334 220.108 101.308 220.119 101.284C220.13 101.26 220.146 101.239 220.166 101.221C220.185 101.204 220.208 101.19 220.233 101.181C220.257 101.173 220.284 101.169 220.31 101.17H220.51C220.63 101.17 220.68 101.23 220.66 101.36L219.74 106.53C219.613 107.078 219.354 107.586 218.985 108.011C218.616 108.436 218.15 108.764 217.625 108.968C217.1 109.171 216.534 109.242 215.976 109.177C215.417 109.111 214.883 108.909 214.42 108.59H214.41ZM219.65 103.89C219.731 103.606 219.742 103.306 219.683 103.016C219.624 102.726 219.495 102.455 219.309 102.226C219.123 101.996 218.884 101.815 218.612 101.697C218.341 101.579 218.045 101.529 217.75 101.55C217.102 101.56 216.479 101.802 215.993 102.231C215.507 102.66 215.19 103.248 215.1 103.89C215.013 104.17 214.994 104.467 215.046 104.755C215.098 105.044 215.219 105.316 215.399 105.548C215.579 105.779 215.812 105.964 216.078 106.087C216.345 106.209 216.637 106.265 216.93 106.25C217.59 106.245 218.227 106.005 218.726 105.572C219.225 105.14 219.552 104.543 219.65 103.89Z" fill="#6D7282"/>
<path d="M221.62 106.44L222.52 101.36C222.525 101.308 222.549 101.259 222.588 101.224C222.627 101.189 222.678 101.17 222.73 101.17H222.93C223.05 101.17 223.09 101.24 223.08 101.36L222.17 106.44C222.169 106.466 222.162 106.491 222.151 106.515C222.14 106.538 222.124 106.558 222.104 106.575C222.084 106.592 222.061 106.605 222.037 106.613C222.012 106.62 221.986 106.623 221.96 106.62H221.76C221.65 106.62 221.61 106.56 221.62 106.44ZM222.73 99.26C222.744 99.1361 222.803 99.0215 222.894 98.937C222.986 98.8526 223.105 98.804 223.23 98.8C223.288 98.7945 223.346 98.8037 223.399 98.8269C223.452 98.8501 223.498 98.8865 223.533 98.9326C223.568 98.9786 223.591 99.0329 223.599 99.0902C223.607 99.1475 223.601 99.2059 223.58 99.26C223.57 99.3865 223.513 99.5048 223.421 99.5917C223.328 99.6786 223.207 99.7279 223.08 99.73C223.022 99.7336 222.964 99.7226 222.911 99.6981C222.858 99.6736 222.813 99.6364 222.778 99.5897C222.743 99.543 222.721 99.4885 222.712 99.4309C222.704 99.3733 222.71 99.3146 222.73 99.26V99.26Z" fill="#6D7282"/>
<path d="M224.05 106.44L224.95 101.36C224.95 101.23 225.05 101.17 225.17 101.17H225.36C225.48 101.17 225.54 101.23 225.51 101.36L225.33 102.36C225.549 101.959 225.869 101.622 226.258 101.383C226.648 101.145 227.093 101.013 227.55 101C228.7 101 229.7 101.59 229.38 103.45L228.85 106.39C228.85 106.52 228.76 106.57 228.64 106.57H228.44C228.33 106.57 228.28 106.52 228.3 106.39L228.82 103.45C229.09 101.93 228.28 101.45 227.45 101.45C226.85 101.495 226.285 101.749 225.852 102.167C225.419 102.585 225.146 103.142 225.08 103.74L224.61 106.34C224.609 106.367 224.602 106.393 224.59 106.417C224.578 106.441 224.561 106.462 224.54 106.479C224.52 106.496 224.496 106.509 224.47 106.516C224.444 106.523 224.417 106.524 224.39 106.52H224.22C224.09 106.62 224.03 106.57 224.05 106.44Z" fill="#6D7282"/>
<path d="M230.65 106.44L231.55 101.36C231.555 101.308 231.579 101.259 231.618 101.224C231.657 101.189 231.708 101.17 231.76 101.17H231.95C232.07 101.17 232.12 101.24 232.11 101.36L231.2 106.44C231.199 106.466 231.192 106.491 231.181 106.515C231.17 106.538 231.154 106.558 231.134 106.575C231.114 106.592 231.091 106.605 231.067 106.613C231.042 106.62 231.016 106.623 230.99 106.62H230.79C230.68 106.62 230.64 106.56 230.65 106.44ZM231.76 99.26C231.774 99.1361 231.833 99.0215 231.924 98.937C232.016 98.8526 232.135 98.804 232.26 98.8C232.317 98.7971 232.374 98.8081 232.425 98.8321C232.477 98.8561 232.522 98.8923 232.556 98.9376C232.591 98.9829 232.614 99.036 232.623 99.0922C232.632 99.1484 232.628 99.206 232.61 99.26C232.6 99.3865 232.543 99.5048 232.451 99.5917C232.358 99.6786 232.237 99.7279 232.11 99.73C231.85 99.73 231.7 99.55 231.76 99.26V99.26Z" fill="#6D7282"/>
<path d="M233.1 103.89C233.216 103.108 233.607 102.393 234.203 101.872C234.798 101.352 235.559 101.06 236.35 101.05C236.814 101.009 237.278 101.132 237.661 101.397C238.045 101.661 238.324 102.052 238.45 102.5L238.65 101.36C238.65 101.23 238.75 101.17 238.86 101.17H239.06C239.18 101.17 239.24 101.23 239.21 101.36L238.3 106.44C238.3 106.57 238.21 106.62 238.09 106.62H237.9C237.79 106.62 237.73 106.57 237.75 106.44L237.95 105.3C237.68 105.744 237.299 106.11 236.845 106.362C236.391 106.615 235.879 106.745 235.36 106.74C235.004 106.761 234.648 106.696 234.322 106.551C233.996 106.405 233.71 106.183 233.488 105.903C233.266 105.624 233.115 105.295 233.048 104.944C232.98 104.594 232.998 104.232 233.1 103.89V103.89ZM238.21 103.89C238.293 103.606 238.306 103.307 238.249 103.017C238.191 102.727 238.063 102.455 237.878 102.225C237.692 101.995 237.453 101.814 237.182 101.696C236.911 101.578 236.615 101.528 236.32 101.55C235.67 101.558 235.045 101.798 234.557 102.228C234.069 102.657 233.751 103.247 233.66 103.89C233.573 104.17 233.554 104.467 233.606 104.755C233.658 105.044 233.779 105.316 233.959 105.548C234.139 105.779 234.372 105.964 234.638 106.087C234.905 106.209 235.197 106.265 235.49 106.25C236.152 106.248 236.791 106.008 237.292 105.576C237.793 105.143 238.122 104.545 238.22 103.89H238.21Z" fill="#6D7282"/>
<path d="M0.429999 43.75L22.22 22L46.55 46.27H1.48C1.18832 46.2694 0.903318 46.1826 0.66079 46.0206C0.418262 45.8586 0.229022 45.6285 0.116837 45.3592C0.00465305 45.09 -0.0254726 44.7936 0.0302438 44.5073C0.0859601 44.221 0.225034 43.9575 0.429999 43.75V43.75Z" fill="#EF4D7F"/>
<path d="M46.62 43V23.5C46.6071 23.0994 46.4394 22.7193 46.1523 22.4396C45.8652 22.1599 45.4808 22.0024 45.08 22H25.59L46.59 43" fill="#B51458"/>
<path d="M95.22 51.86L73.42 73.66L49.07 49.34H94.14C94.4342 49.3346 94.7234 49.417 94.9706 49.5767C95.2177 49.7365 95.4117 49.9663 95.5276 50.2367C95.6435 50.5072 95.6762 50.8061 95.6214 51.0953C95.5666 51.3844 95.4268 51.6507 95.22 51.86V51.86Z" fill="#ECEA64"/>
<path d="M49 52.63V72.11C48.9987 72.3131 49.0375 72.5144 49.1143 72.7024C49.1911 72.8904 49.3044 73.0614 49.4475 73.2054C49.5906 73.3495 49.7609 73.4638 49.9484 73.5418C50.1358 73.6198 50.3369 73.66 50.54 73.66H70.03L49.03 52.66" fill="#C1B61C"/>
<path d="M51.86 0.429998L73.66 22.23L49.34 46.55V1.47C49.3425 1.17917 49.4307 0.895538 49.5935 0.654529C49.7563 0.413519 49.9865 0.225816 50.2553 0.114864C50.5242 0.00391299 50.8198 -0.025368 51.1051 0.0306783C51.3905 0.0867246 51.6531 0.225614 51.86 0.429998V0.429998Z" fill="#6AC17B"/>
<path d="M52.63 46.62H72.12C72.3231 46.62 72.5242 46.5798 72.7117 46.5018C72.8992 46.4238 73.0694 46.3095 73.2125 46.1654C73.3556 46.0213 73.4689 45.8504 73.5457 45.6624C73.6225 45.4744 73.6613 45.2731 73.66 45.07V25.59L52.66 46.59" fill="#539151"/>
<path d="M43.76 95.18L21.96 73.38L46.28 49.07V94.14C46.2775 94.4308 46.1893 94.7145 46.0265 94.9555C45.8637 95.1965 45.6335 95.3842 45.3647 95.4951C45.0958 95.6061 44.8002 95.6354 44.5149 95.5793C44.2295 95.5233 43.9669 95.3844 43.76 95.18V95.18Z" fill="#3EC2CF"/>
<path d="M42.99 49H23.5C23.0906 49.0026 22.699 49.1671 22.4104 49.4575C22.1219 49.7479 21.96 50.1406 21.96 50.55V70L42.96 49" fill="#00A3B4"/>
</g>
<defs>
<clipPath id="clip0_2_54">
<rect width="239.22" height="109.21" fill="white"/>
</clipPath>
</defs>
</svg>
